<svg xmlns="http://www.w3.org/2000/svg" viewBox="0 0 280 280" fill="none" shape-rendering="auto" width="160" height="160"><metadata xmlns:rdf="http://www.w3.org/1999/02/22-rdf-syntax-ns#" xmlns:xsi="http://www.w3.org/2001/XMLSchema-instance" xmlns:dc="http://purl.org/dc/elements/1.1/" xmlns:dcterms="http://purl.org/dc/terms/"><rdf:RDF><rdf:Description><dc:title>Avataaars</dc:title><dc:creator>Pablo Stanley</dc:creator><dc:source xsi:type="dcterms:URI">https://avataaars.com/</dc:source><dcterms:license xsi:type="dcterms:URI">https://avataaars.com/</dcterms:license><dc:rights>Remix of „Avataaars” (https://avataaars.com/) by „Pablo Stanley”, licensed under „Free for personal and commercial use” (https://avataaars.com/)</dc:rights></rdf:Description></rdf:RDF></metadata><mask id="viewboxMask"><rect width="280" height="280" rx="0" ry="0" x="0" y="0" fill="#fff" /></mask><g mask="url(#viewboxMask)"><g transform="translate(8)"><path d="M132 36a56 56 0 0 0-56 56v6.17A12 12 0 0 0 66 110v14a12 12 0 0 0 10.3 11.88 56.04 56.04 0 0 0 31.7 44.73v18.4h-4a72 72 0 0 0-72 72v9h200v-9a72 72 0 0 0-72-72h-4v-18.39a56.04 56.04 0 0 0 31.7-44.73A12 12 0 0 0 198 124v-14a12 12 0 0 0-10-11.83V92a56 56 0 0 0-56-56Z" fill="#614335"/><path d="M108 180.61v8a55.79 55.79 0 0 0 24 5.39c8.59 0 16.73-1.93 24-5.39v-8a55.79 55.79 0 0 1-24 5.39 55.79 55.79 0 0 1-24-5.39Z" fill="#000" fill-opacity=".1"/><g transform="translate(0 170)"><path d="M132 57.05c14.91 0 27-11.2 27-25 0-1.01-.06-2.01-.2-3h1.2a72 72 0 0 1 72 72V110H32v-8.95a72 72 0 0 1 72-72h1.2c-.14.99-.2 1.99-.2 3 0 13.8 12.09 25 27 25Z" fill="#E6E6E6"/><path d="M100.78 29.12 101 28c-2.96.05-6 1-6 1l-.42.66A72.01 72.01 0 0 0 32 101.06V110h74s-10.7-51.56-5.24-80.8l.02-.08ZM158 110s11-53 5-82c2.96.05 6 1 6 1l.42.66a72.01 72.01 0 0 1 62.58 71.4V110h-74Z" fill="#25557c"/><path d="M101 28c-6 29 5 82 5 82H90L76 74l6-9-6-6 19-30s3.04-.95 6-1ZM163 28c6 29-5 82-5 82h16l14-36-6-9 6-6-19-30s-3.04-.95-6-1Z" fill-rule="evenodd" clip-rule="evenodd" fill="#000" fill-opacity=".15"/><path d="M108 21.54c-6.77 4.6-11 11.12-11 18.35 0 7.4 4.43 14.05 11.48 18.67l5.94-4.68 4.58.33-1-3.15.08-.06c-6.1-3.15-10.08-8.3-10.08-14.12V21.54ZM156 36.88c0 5.82-3.98 10.97-10.08 14.12l.08.06-1 3.15 4.58-.33 5.94 4.68C162.57 53.94 167 47.29 167 39.89c0-7.23-4.23-13.75-11-18.35v15.34Z" fill="#F2F2F2"/><path d="m183.42 85.77.87-2.24 6.27-4.7a4 4 0 0 1 4.85.05l6.6 5.12-18.59 1.77Z" fill="#E6E6E6"/></g><g transform="translate(78 134)"><path d="M40 16c0 5.37 6.16 9 14 9s14-3.63 14-9c0-1.1-.95-2-2-2-1.3 0-1.87.9-2 2-1.24 2.94-4.32 4.72-10 5-5.68-.28-8.76-2.06-10-5-.13-1.1-.7-2-2-2-1.05 0-2 .9-2 2Z" fill="#000" fill-opacity=".6"/></g><g transform="translate(104 122)"><path fill-rule="evenodd" clip-rule="evenodd" d="M16 8c0 4.42 5.37 8 12 8s12-3.58 12-8" fill="#000" fill-opacity=".16"/></g><g transform="translate(76 90)"><path d="M16.16 22.45c1.85-3.8 6-6.45 10.84-6.45 4.81 0 8.96 2.63 10.82 6.4.55 1.13-.24 2.05-1.03 1.37a15.05 15.05 0 0 0-9.8-3.43c-3.73 0-7.12 1.24-9.55 3.23-.9.73-1.82-.01-1.28-1.12ZM74.16 22.45c1.85-3.8 6-6.45 10.84-6.45 4.81 0 8.96 2.63 10.82 6.4.55 1.13-.24 2.05-1.03 1.37a15.05 15.05 0 0 0-9.8-3.43c-3.74 0-7.13 1.24-9.56 3.23-.9.73-1.82-.01-1.28-1.12Z" fill-rule="evenodd" clip-rule="evenodd" fill="#000" fill-opacity=".6"/></g><g transform="translate(76 82)"><path d="m22.77 1.58.9-.4C28.93-.91 36.88-.03 41.73 2.3c.57.27.18 1.15-.4 1.1-14.92-1.14-24.96 8.15-28.37 14.45-.1.18-.41.2-.49.03-2.3-5.32 4.45-13.98 10.3-16.3ZM89.23 1.58l-.9-.4C83.07-.91 75.12-.03 70.27 2.3c-.57.27-.18 1.15.4 1.1 14.92-1.14 24.96 8.15 28.37 14.45.1.18.41.2.49.03 2.3-5.32-4.45-13.98-10.3-16.3Z" fill-rule="evenodd" clip-rule="evenodd" fill="#000" fill-opacity=".6"/></g><g transform="translate(-1)"><path d="M151.12 28.28c3.06-2.97 4.88-6.71 4.88-10.78C156 7.84 145.7 0 133 0s-23 7.84-23 17.5c0 4.1 1.85 7.86 4.94 10.84-.99.22-1.95.45-2.9.69-15.1 3.8-24.02 14.62-31.68 30.62a67.68 67.68 0 0 0-6.34 25.83c-.13 3.41.33 6.94 1.25 10.22.33 1.2 2.15 5.39 2.65 2 .1-.66-.07-1.47-.24-2.27-.12-.55-.23-1.1-.26-1.6-.08-1.56 0-3.15.11-4.72.2-2.92.73-5.8 1.65-8.59 1.33-3.98 3.02-8.3 5.6-11.67.97-1.25 1.88-2.7 2.88-4.27 5.63-8.9 13.68-21.6 45.34-22.9 34.3-1.42 46.78 21.66 51.21 29.87.38.7.7 1.3.97 1.75 2.67 4.53 2.78 9.75 2.9 14.91.05 2.71.11 5.41.54 8 .47 2.84 1.54 2.78 2.13.23 1-4.33 1.47-8.83 1.15-13.28-.72-10.05-4.4-36.45-24.6-48.15a65.52 65.52 0 0 0-16.18-6.73Z" fill="#2c1b18"/></g><g transform="translate(49 72)"></g><g transform="translate(62 42)"><path d="M71 58.11c-11.04 0-12.63-9.08-35.33-10.37C13 46.72 5.82 53.44 5.77 58.11c.04 4.3-1.12 15.45 13.6 28.52 14.77 15.51 29.9 10.25 35.32 5.18 5.45-2.34 11.65-23.35 16.3-23.33 4.67.02 10.87 21 16.32 23.33 5.42 5.07 20.55 10.33 35.33-5.18 14.71-13.07 13.55-24.23 13.58-28.52-.03-4.66-7.2-11.4-29.9-10.37C83.63 49.03 82.05 58.11 71 58.11Z" fill="#000" fill-opacity=".1"/><path d="M71 56.11c-11.04 0-12.63-9.08-35.33-10.37C13 44.72 5.82 51.44 5.77 56.11c.04 4.3-1.12 15.45 13.6 28.52 14.77 15.51 29.9 10.25 35.32 5.18 5.45-2.34 11.65-23.35 16.3-23.33 4.67.02 10.87 21 16.32 23.33 5.42 5.07 20.55 10.33 35.33-5.18 14.71-13.07 13.55-24.23 13.58-28.52-.03-4.66-7.2-11.4-29.9-10.37C83.63 47.03 82.05 56.11 71 56.11Z" fill="#262e33"/><path d="M32.95 50.93c14.27-.29 27.56 7.9 27.18 15.55-.22 5.05-2.93 22.83-19.02 23.33-16.1.5-24.81-17.79-24.46-25.92.2-3.51 2.05-12.67 16.3-12.96ZM109.05 50.93c-14.27-.29-27.56 7.9-27.18 15.55.22 5.05 2.93 22.83 19.02 23.33 16.1.5 24.81-17.79 24.46-25.92-.2-3.51-2.05-12.67-16.3-12.96Z" fill="#2F383B"/></g></g></g></svg>